<svg xmlns="http://www.w3.org/2000/svg" width="256" height="256"><path fill-opacity=".016" d="M0 128.004v128.004l128.25-.254 128.25-.254.254-127.75L257.008 0H0v128.004m.485.496c0 70.4.119 99.053.265 63.672.146-35.38.146-92.98 0-128C.604 29.153.485 58.1.485 128.5" fill="#1976D2" fill-rule="evenodd"/><path fill-opacity=".171" d="M114.661 3.25c-3.232 4.303-7.498 13.061-12.17 24.982l-3.815 9.733-8.314-7.983C81.734 21.7 78.561 20.331 74.75 23.25 72.817 24.73 66 57.996 66 65.947 66 70.27 66.279 71 67.927 71c4.026 0 8.65-10.111 12.119-26.5.699-3.3 1.565-6.343 1.925-6.763.36-.419 3.916 3.069 7.903 7.75C96.351 53.095 97.485 54 100.538 54c4.404 0 5.456-1.633 10.371-16.104 2.129-6.268 4.727-13.365 5.774-15.771l1.903-4.375 6.909 16.239c7.293 17.14 8.711 18.929 13.957 17.612 3.458-.868 9.621-7.15 12.274-12.512l2.139-4.324.651 3.868c4.782 28.411 6.283 32.401 12.168 32.352 3.577-.03 4.653-1.626 4.481-6.646-.272-7.961-6.274-42.664-7.798-45.089-.923-1.47-2.394-2.25-4.242-2.25-4.732 0-9.144 3.936-14.008 12.5l-4.545 8-6.172-15.198C126.307 2.375 124.823 0 120.469 0c-2.632 0-3.9.71-5.808 3.25m57.331 73.763c-7.284.889-12.046 2.481-20.492 6.853-8.946 4.63-20.859 15.909-25.889 24.508l-3.805 6.507-3.364-6.691c-12.447-24.751-36.065-35.618-58.943-27.12-34.204 12.705-49.023 53.147-32.682 89.187 11.089 24.457 37.681 49.499 72.433 68.213l8.75 4.711-.1-4.84c-.168-8.185-.677-8.863-11.412-15.203-39.742-23.473-61.553-52.139-61.464-80.782.014-4.321.48-9.831 1.037-12.244 2.858-12.401 11.823-23.961 22.75-29.338 6.122-3.012 7.414-3.272 16.171-3.248 8.628.023 10.126.322 16.018 3.195 11.025 5.378 23.024 19.434 28.616 33.525 1.036 2.611 2.132 4.748 2.435 4.75.303.002 1.58-2.133 2.837-4.746 3.859-8.015 14.659-23.552 20.807-29.933 6.777-7.035 16.231-13.437 23.618-15.993 5.766-1.996 22.208-2.49 31.437-.945 4.951.829 5.25.759 5.25-1.23 0-5.356-20.298-10.809-34.008-9.136m55.316 37.484c-2.999 2.101-4.096 6.167-5.351 19.846-2.061 22.466-6.168 33.116-16.847 43.688-9.162 9.069-24.278 16.368-40.079 19.351-4.476.846-3.292-.212 5.469-4.882 9.874-5.265 12.019-6.966 13.974-11.087 1.236-2.604 1.539-4.842 1.075-7.938-.975-6.502-2.258-6.982-8.96-3.352-3.152 1.707-8.286 3.767-11.41 4.577-24.368 6.321-38.256 28.101-36.855 57.8.436 9.262 2.684 21.841 4.166 23.324.224.224 5.493-4.193 11.709-9.815 14.8-13.387 27.529-22.836 43.88-32.574 22.859-13.613 36.912-29.419 43.51-48.935 3.633-10.745 4.391-29.715 1.697-42.426-.982-4.635-2.244-8.575-2.805-8.756-.56-.182-1.988.349-3.173 1.179m-14.903 6.605c-1.706 1.881-1.957 4.263-2.405 22.75-.275 11.356-.198 21.04.172 21.52.813 1.055 4.156-9.472 6.207-19.545 4.195-20.599 2.401-31.758-3.974-24.725m-12.587 14.148c-2.144 3.006-2.299 4.113-2.071 14.75.401 18.614 3.716 29.592 6.136 20.315 1.381-5.296 2.523-28.125 1.685-33.709-.828-5.524-2.497-5.917-5.75-1.356" fill="#1976D2" fill-rule="evenodd"/><path fill-opacity=".611" d="M115.648 2.624c-3.03 3.031-7.494 12.001-13.217 26.561l-3.807 9.685-7.782-7.909c-8.352-8.487-11.484-10.081-15.126-7.694-1.967 1.289-2.768 4.066-6.011 20.86-4.136 21.42-4.481 25.638-2.168 26.526 3.793 1.455 7.536-6.607 12.026-25.903.991-4.263 2.149-7.75 2.573-7.75.424 0 3.542 3.263 6.93 7.25 7.332 8.629 8.649 9.75 11.451 9.75 3.549 0 5.985-3.918 10.255-16.5 2.24-6.6 4.914-13.967 5.942-16.371l1.868-4.371 6.301 14.871C132.916 50.589 133.184 51 137.488 51c4.339 0 9.541-4.371 13.543-11.377 1.801-3.154 3.048-4.49 3.34-3.578.256.8 1.42 7.08 2.588 13.955 1.167 6.875 2.892 14.073 3.832 15.995 2.047 4.185 6.224 6.067 8.772 3.953 2.122-1.761 1.642-7.806-2.596-32.729-3.278-19.275-4.017-20.823-9.44-19.762-4.22.826-8.852 5.73-13.165 13.938l-3.723 7.085-1.408-3.49c-7.874-19.518-11.82-28.571-13.637-31.275-2.869-4.272-6.379-4.657-9.946-1.091m51.264 75.427c-16.451 3.899-34.162 17.328-41.583 31.53-1.556 2.978-3.054 5.413-3.329 5.412-.275-.001-2.283-3.475-4.463-7.721-5.315-10.352-14.93-20.157-23.867-24.339-24.124-11.289-53.352 1.129-66.573 28.285-4.209 8.644-7.106 20.297-7.084 28.49.023 8.239 3.57 22.614 7.756 31.428 9.762 20.557 26.08 37.892 51.921 55.157 10.392 6.943 27.083 16.267 27.813 15.537.193-.193.103-3.085-.2-6.428l-.551-6.077-6.126-3.367c-12.815-7.042-27.299-17.633-37.332-27.296-16.821-16.202-26-32.164-28.447-49.472-2.85-20.149 7.16-40.645 23.852-48.842C63.96 97.765 65.478 97.5 75 97.503c9.562.003 11.004.259 16.142 2.86 11.168 5.653 21.796 17.802 27.879 31.87 1.363 3.153 2.705 5.741 2.981 5.75.276.009 1.626-2.118 3-4.728s5.009-8.572 8.078-13.25c17.05-25.99 37.117-37.374 59.784-33.914 10.895 1.662 12.534 1.643 12.896-.153.369-1.833-6.415-5.265-14.76-7.464-5.956-1.571-18.329-1.788-24.088-.423m59.284 38.427c-2.244 2.853-2.707 5.12-4.209 20.642-2.36 24.369-9.06 37.433-24.492 47.755-7.797 5.215-14.132 7.934-26.193 11.243-11.25 3.086-11.734 1.922-1.466-3.531 11.829-6.282 15.164-9.919 15.164-16.54 0-5.663-.72-8.047-2.429-8.047-.669 0-3.658 1.319-6.643 2.93-2.986 1.612-7.678 3.475-10.428 4.14-17.394 4.209-29.991 17.135-35.092 36.01-2.964 10.965-2.089 32.716 1.719 42.75.845 2.226 1.32 1.92 10.629-6.851 12.513-11.79 29.562-24.622 44.744-33.677 20.869-12.446 31.561-22.974 39.411-38.802 5.349-10.785 7.12-17.937 7.676-31 .346-8.12 0-13.354-1.319-19.988-1.979-9.957-3.547-11.516-7.072-7.034m-13.295 4.399c-2.387 1.931-2.402 2.07-2.601 23.283-.177 18.898-.041 20.997 1.191 18.34 3.217-6.94 5.823-20.993 5.916-31.907.1-11.779-.461-12.989-4.506-9.716M201.15 134.34c-3.434 3.656-4.041 7.502-3.076 19.508 1.157 14.385 2.762 21.649 4.419 19.992 2.161-2.16 3.755-41.84 1.681-41.84-.454 0-1.815 1.053-3.024 2.34" fill="#1976D2" fill-rule="evenodd"/><path fill-opacity=".975" d="M116.844 1.908c-1.335 1.05-3.61 4.087-5.057 6.75-2.201 4.053-9.82 22.042-12.173 28.743-.571 1.628-1.871.727-9.019-6.25-6.556-6.399-8.968-8.148-11.223-8.136-1.58.009-3.432.371-4.117.806-.685.435-2.774 8.416-4.643 17.735-4.719 23.527-5.094 26.799-3.248 28.331 3.408 2.828 7.845-6.736 12.126-26.137.941-4.263 2.036-7.75 2.434-7.75.397 0 3.98 3.825 7.96 8.5 6.389 7.503 7.627 8.5 10.555 8.5 1.824 0 3.835-.626 4.47-1.39.635-.765 2.875-6.502 4.978-12.75 4.858-14.428 8.206-22.19 9.128-21.164.398.442 3.563 7.554 7.034 15.804 3.471 8.25 6.735 15.563 7.254 16.25.518.687 2.474 1.25 4.346 1.25 2.675 0 4.308-.91 7.628-4.25 2.324-2.338 5.08-6.163 6.126-8.5 1.045-2.337 2.224-4.25 2.62-4.25.396 0 1.025 2.362 1.398 5.25 1.225 9.47 4.645 24.977 6.153 27.892 1.186 2.296 2.148 2.858 4.884 2.858 4.376 0 4.877-1.569 3.538-11.095-2.457-17.484-6.286-38.5-7.225-39.655-1.736-2.135-7.361-1.466-10.602 1.261-1.641 1.381-4.713 5.879-6.827 9.996-2.113 4.116-4.212 7.362-4.665 7.214-.453-.148-3.412-6.559-6.576-14.245-7.083-17.209-9.548-22.05-11.64-22.853-2.416-.927-2.965-.801-5.617 1.285M167 78.554c-16.44 3.527-34.97 17.794-42.081 32.399-2.713 5.573-3.475 6.049-4.478 2.797-1.432-4.643-8.636-15.817-13.254-20.558C88.111 73.607 59.68 74.361 38.981 95c-15.681 15.636-21.843 39.253-16.045 61.5 7.832 30.056 32.628 56.733 74.701 80.367 5.025 2.823 9.3 5.133 9.5 5.133.2 0 .138-2.778-.137-6.173l-.5-6.173-8.76-5.077c-27.561-15.973-46.405-34.073-56.671-54.433-14.001-27.768-6.342-57.992 17.708-69.878 7.024-3.472 8.287-3.765 16.171-3.755 7.524.01 9.364.394 15.311 3.201 11.419 5.391 21.975 17.016 28.913 31.841l2.999 6.409 3.032-5.731c9.276-17.529 25.144-35.383 36.54-41.114 12.004-6.036 23.111-7.477 36.257-4.704 3.575.754 6.838 1.168 7.25.92 4.675-2.81-15.526-10.398-27.25-10.236-2.475.034-7.425.69-11 1.457m61.229 36.115c-2.673 1.076-4.142 6.462-5.622 20.609-1.633 15.609-4.605 26.59-9.142 33.777-8.547 13.54-22.66 22.564-43.546 27.846-12.661 3.202-12.281 1.836 1.581-5.675 11.132-6.032 13.888-9.476 13.23-16.535-.632-6.783-1.655-7.406-7.013-4.266-2.465 1.445-8.645 3.932-13.734 5.528-14.622 4.584-22.759 11.276-29.07 23.905-4.027 8.059-5.881 17.121-5.898 28.827-.013 9.021 1.568 20.467 3.533 25.582.559 1.453 2.495.019 10.89-8.067 12.079-11.634 26.778-22.807 42.022-31.94 14.476-8.673 20.708-13.509 29.397-22.814 9.208-9.859 15.391-21.924 18.167-35.446 2.7-13.153 2.441-21.631-1.136-37.25-1.092-4.771-1.318-5.023-3.659-4.081m-15.762 7.367c-1.746 1.929-1.912 3.858-1.938 22.477-.017 11.681.321 19.433.791 18.177 5.084-13.572 8.148-41.738 4.618-42.449-.858-.173-2.42.635-3.471 1.795m-11.409 12.617c-3.031 3.853-3.419 6.407-2.719 17.856.677 11.064 2.346 20.491 3.627 20.491 1.44 0 2.064-5.237 2.695-22.604.664-18.309.157-20.523-3.603-15.743" fill="#1976D2" fill-rule="evenodd"/></svg>