<?xml version="1.0" encoding="utf-8"?>
<!-- Generator: Adobe Illustrator 22.0.1, SVG Export Plug-In . SVG Version: 6.00 Build 0)  -->
<svg version="1.1" id="Camada_1" xmlns="http://www.w3.org/2000/svg" xmlns:xlink="http://www.w3.org/1999/xlink" x="0px" y="0px"
	 viewBox="0 0 312.1 288.6" style="enable-background:new 0 0 312.1 288.6;" xml:space="preserve">
<style type="text/css">
	.st0{fill:#F3F3F3;}
</style>
<path class="st0" d="M74.4,106.1c6.8,0.8,11.1-14.6,18.7-47.9c18.2,19.4,18.4,24,23.3,24.5c14.3,1.6,8.7-10.6,27.2-50.5
	c5.7,14.9,12.6,29.6,18.7,44.4c1.5,3.7,8.6,4,12.6,1.5c10.1-6.4,13-15.1,17-23.2c7.3,50.6,10.4,50.3,15.9,50.9c4.4,0.5,6.6-1,7.1-4
	c0.9-6.3-8.3-57.1-9.6-64.4c-0.4-2.3-2.9-3.7-5.7-4c-13.8-1.5-21.4,21.7-26.2,29C153.1,10.9,152,10.3,147.3,9.8
	c-7.4-0.8-12.2,3.1-31.1,53.1C94.1,38.2,91.5,40,90.9,39.9c-4-0.4-8.6,1.8-9.1,4.5C72.4,92.3,68.6,105.5,74.4,106.1"/>
<path class="st0" d="M268.8,234.4c3.9-8.5,13.4-43.8,9.5-61.3c-3-2.6-11,1.3-10.4,13.8c0.7,16.3,0.9,36.4-0.3,47.2
	C267.5,234.8,268.5,235.1,268.8,234.4"/>
<path class="st0" d="M259.4,240.9c2.3-11.1,2.6-40.2,1.6-50c-0.4-4.3-7.5,1.6-9.8,9.8C249.7,206.4,254.5,264.8,259.4,240.9"/>
<path class="st0" d="M75.3,287.6c-120.3-103.3,23-218.8,72.8-88.8c37.7-75.8,78.1-78.5,110.9-69.3c3.3,0.9,5.2-3.6,2.2-5.3
	c-49.6-28.2-99.7,9.4-113.3,43.9C97.8,43.2-67.9,169.7,52.3,287.6H75.3z"/>
<path class="st0" d="M256.9,287.6c30.9-23.2,56.4-62.2,39.8-122.7c-0.1-0.4-0.5-0.7-0.9-0.6c-26.9,5,20.6,94.6-93.5,115.7
	c-0.8,0.1-1.2-1-0.6-1.5c12.9-10.4,40.9-12.9,30.6-39.2c-0.5-1.3-2.1-1.8-3.3-1.1c-10,6.3-15,8.7-20.8,9.7
	c-23.6,5.1-38.2,20.4-45.6,39.7H256.9z"/>
</svg>
